<svg xmlns="http://www.w3.org/2000/svg" xmlns:xlink="http://www.w3.org/1999/xlink" width="500" zoomAndPan="magnify" viewBox="0 0 375 374.999991" height="500" preserveAspectRatio="xMidYMid meet" version="1.0"><defs><clipPath id="eec4bf294d"><path d="M 63.613281 50 L 299 50 L 299 337.828125 L 63.613281 337.828125 Z M 63.613281 50 " clip-rule="nonzero"/></clipPath></defs><g clip-path="url(#eec4bf294d)"><path fill="#eae9e9" d="M 291.945312 141.742188 C 292.390625 141.804688 292.894531 141.929688 293.402344 141.929688 L 293.53125 140.347656 C 292.894531 140.28125 292.261719 140.15625 291.628906 140.03125 C 291.503906 139.269531 291.4375 138.507812 291.4375 137.6875 C 292.390625 138.003906 293.53125 138.253906 294.796875 138.253906 C 295.9375 138.253906 297.140625 138.066406 298.535156 137.6875 L 298.089844 136.164062 C 295.175781 137.050781 293.023438 136.671875 291.4375 135.976562 C 291.503906 133.632812 291.820312 131.160156 292.578125 128.371094 C 296.0625 116.082031 296.507812 108.667969 293.972656 104.359375 C 292.199219 101.320312 289.15625 100.117188 285.167969 99.230469 C 279.589844 97.960938 264.765625 102.839844 254.757812 110.824219 C 247.597656 116.523438 243.859375 122.925781 243.859375 129.257812 C 243.859375 136.226562 245.949219 145.351562 247.914062 154.15625 C 250.320312 164.738281 252.792969 175.636719 251.207031 181.464844 C 247.46875 181.652344 242.972656 182.605469 238.789062 183.492188 C 238.21875 183.617188 237.714844 183.746094 237.144531 183.871094 C 236.445312 183.492188 235.75 183.046875 235.117188 182.667969 C 232.519531 181.148438 230.300781 179.816406 228.464844 180.449219 C 227.449219 180.765625 226.753906 181.652344 226.183594 183.046875 C 225.804688 184.125 225.867188 185.011719 226.371094 185.644531 C 227.640625 187.167969 231.0625 186.722656 236.890625 185.519531 C 238.855469 186.53125 241.007812 187.484375 243.351562 187.738281 C 242.464844 188.625 241.957031 189.828125 241.894531 191.285156 C 241.703125 194.578125 242.273438 197.683594 242.71875 200.21875 C 242.71875 200.28125 242.71875 200.34375 242.78125 200.40625 C 230.679688 195.210938 219.65625 208.011719 219.53125 208.136719 L 217.691406 210.289062 L 220.355469 209.402344 C 220.417969 209.402344 227.386719 207.125 237.714844 208.582031 C 240.816406 209.023438 242.71875 208.707031 243.859375 207.566406 C 245.0625 206.363281 245 204.460938 244.683594 202.117188 C 246.140625 201.105469 252.539062 197.746094 264.386719 205.414062 C 261.597656 205.160156 257.605469 205.097656 255.199219 206.234375 C 251.777344 207.820312 246.457031 206.679688 246.394531 206.679688 L 246.140625 206.679688 C 245.695312 206.742188 245.0625 207.058594 244.808594 207.691406 C 244.492188 208.582031 244.9375 209.722656 246.265625 211.242188 C 244.9375 211.367188 242.085938 211.179688 239.675781 211.050781 C 230.300781 210.542969 223.015625 210.417969 221.683594 213.523438 C 220.988281 215.042969 221.9375 217.007812 224.472656 219.476562 C 224.914062 220.046875 229.351562 224.734375 240.816406 223.722656 C 246.898438 223.152344 247.914062 224.355469 247.976562 224.484375 C 248.039062 224.546875 248.039062 224.609375 247.976562 224.800781 C 247.660156 225.371094 246.519531 226.066406 245.191406 226.066406 C 244.808594 226.066406 244.367188 226.066406 243.859375 226.066406 C 240.882812 226.003906 236.382812 225.875 234.863281 228.789062 C 233.46875 231.515625 235.304688 235.949219 240.3125 242.347656 C 244.050781 247.164062 245.316406 251.15625 244.050781 254.324219 C 242.085938 259.074219 234.863281 260.660156 233.023438 261.039062 C 232.898438 261.039062 232.707031 261.039062 232.582031 261.101562 C 232.203125 261.039062 231.566406 261.039062 230.679688 261.230469 C 213.574219 261.863281 196.214844 250.015625 176.640625 234.9375 C 174.421875 233.226562 172.394531 231.453125 170.683594 229.675781 C 183.734375 222.835938 192.667969 217.449219 188.421875 188.117188 C 200.144531 182.984375 213.703125 173.355469 214.019531 166.324219 C 214.144531 163.597656 212.371094 161.570312 208.886719 160.175781 C 203.566406 158.085938 200.839844 155.617188 200.777344 152.765625 C 200.652344 147.503906 209.457031 140.664062 225.613281 133.503906 C 239.234375 127.484375 240.246094 119.820312 241.132812 113.105469 C 242.023438 106.386719 242.84375 100.050781 256.023438 95.425781 C 283.328125 85.796875 282.0625 65.144531 282.0625 64.953125 L 281.617188 59.503906 L 280.476562 64.890625 C 279.464844 69.707031 274.777344 72.238281 261.15625 77.246094 C 247.976562 82.121094 244.113281 87.316406 241.640625 95.238281 C 241.515625 95.746094 241.324219 96.1875 241.199219 96.695312 C 239.359375 102.777344 238.347656 106.070312 218.515625 113.421875 C 216.742188 114.054688 214.90625 114.6875 213.132812 115.320312 C 211.421875 115.953125 209.648438 116.523438 208 117.160156 C 208.507812 116.460938 208.949219 115.765625 209.332031 115.066406 C 209.964844 113.992188 210.722656 113.039062 211.929688 112.46875 C 214.082031 111.394531 216.171875 110.191406 218.582031 109.492188 C 219.277344 109.300781 219.972656 109.113281 220.734375 108.984375 C 223.457031 108.542969 226.183594 107.972656 228.71875 106.769531 C 229.289062 106.515625 229.859375 106.132812 230.425781 105.816406 C 230.679688 105.691406 230.871094 105.4375 231.125 105.3125 C 233.40625 103.726562 234.863281 101.511719 235.75 98.976562 C 236.066406 98.023438 236.257812 97.011719 236.445312 95.996094 C 236.890625 93.78125 237.332031 91.625 237.777344 89.410156 C 237.96875 88.394531 237.96875 87.382812 238.03125 86.367188 C 238.03125 86.179688 238.09375 85.988281 238.03125 85.796875 C 237.902344 85.542969 237.777344 85.226562 237.585938 85.164062 C 237.398438 85.101562 237.078125 85.226562 236.890625 85.417969 C 236.445312 85.925781 236.003906 86.429688 235.621094 87 C 234.484375 88.773438 233.089844 90.296875 231.503906 91.691406 C 230.238281 92.765625 228.90625 93.84375 227.324219 94.605469 C 225.804688 95.300781 224.34375 96.1875 222.886719 96.949219 C 221.621094 97.582031 220.417969 98.277344 219.339844 99.164062 C 217.503906 100.6875 215.855469 102.332031 214.527344 104.296875 C 213.957031 105.183594 213.320312 106.070312 212.75 107.023438 C 212.941406 106.324219 213.066406 105.628906 213.257812 104.929688 C 213.636719 104.675781 213.765625 104.234375 213.890625 103.789062 C 214.335938 102.332031 214.84375 100.875 215.222656 99.417969 C 215.539062 97.960938 216.234375 96.695312 217.1875 95.617188 C 217.882812 94.859375 218.769531 94.222656 219.65625 93.527344 C 221.367188 92.195312 223.269531 91.308594 225.359375 90.675781 C 225.929688 90.484375 226.5 90.234375 227.132812 89.980469 C 227.511719 89.851562 227.832031 89.664062 228.210938 89.535156 C 228.398438 89.726562 228.527344 89.851562 228.71875 90.042969 C 229.730469 90.929688 230.996094 90.738281 231.695312 89.597656 C 231.820312 89.410156 231.949219 89.15625 232.011719 88.964844 C 232.136719 88.648438 232.265625 88.394531 232.582031 88.207031 C 233.152344 87.824219 233.277344 87.445312 233.089844 87.128906 C 232.835938 86.683594 232.453125 86.683594 232.011719 86.8125 C 231.949219 86.8125 231.886719 86.8125 231.757812 86.8125 C 231.0625 86.179688 230.238281 85.480469 229.160156 85.988281 C 227.957031 86.558594 227.957031 87.636719 228.019531 88.902344 C 227.007812 89.28125 225.929688 89.789062 224.851562 90.105469 C 222.507812 90.867188 220.355469 91.816406 218.453125 93.464844 C 218.136719 93.71875 217.820312 93.96875 217.375 94.160156 C 218.328125 92.261719 218.898438 90.167969 220.480469 88.648438 C 221.746094 87.445312 223.015625 86.242188 224.410156 85.289062 C 226.054688 84.152344 227.832031 83.515625 229.667969 82.882812 C 230.996094 82.441406 232.328125 81.871094 233.722656 81.363281 C 235.179688 80.855469 236.574219 80.347656 237.902344 79.589844 C 238.21875 79.398438 238.472656 79.398438 238.726562 79.714844 C 238.917969 79.90625 239.042969 80.03125 239.234375 80.222656 C 239.996094 80.792969 240.882812 80.664062 241.386719 79.84375 C 241.703125 79.398438 241.894531 78.890625 242.210938 78.449219 C 242.339844 78.257812 242.527344 78.066406 242.65625 77.941406 C 243.035156 77.5625 243.097656 77.117188 242.910156 76.738281 C 242.65625 76.359375 242.339844 76.230469 241.703125 76.359375 C 241.453125 76.421875 241.132812 76.421875 240.816406 76.359375 C 240.183594 76.230469 239.550781 76.292969 238.980469 76.609375 C 238.03125 77.054688 237.714844 77.816406 237.902344 78.890625 C 236.890625 79.460938 235.875 79.777344 234.863281 80.160156 C 233.152344 80.730469 231.441406 81.234375 229.730469 81.804688 C 228.527344 82.1875 227.324219 82.691406 226.121094 83.136719 C 224.597656 83.707031 223.269531 84.53125 222.128906 85.671875 C 221.683594 86.113281 221.304688 86.496094 220.859375 86.875 C 220.796875 86.8125 220.734375 86.8125 220.734375 86.8125 C 220.734375 86.8125 220.734375 86.746094 220.734375 86.746094 C 221.429688 85.226562 222.128906 83.644531 222.886719 82.121094 C 223.269531 81.363281 223.710938 80.664062 224.21875 79.96875 C 225.105469 78.828125 225.992188 77.75 226.941406 76.609375 C 227.261719 76.675781 227.511719 76.738281 227.765625 76.738281 C 228.652344 76.800781 229.289062 76.484375 229.539062 75.660156 C 229.730469 75.152344 230.046875 74.902344 230.554688 74.773438 C 231.25 74.582031 231.949219 74.394531 232.644531 74.265625 C 234.925781 73.761719 237.207031 73.253906 239.488281 72.808594 C 240.566406 72.621094 241.640625 72.367188 242.78125 72.304688 C 243.605469 72.238281 244.367188 71.921875 245.0625 71.542969 C 246.011719 71.035156 247.027344 70.527344 247.914062 70.023438 C 248.105469 70.085938 248.167969 70.085938 248.230469 70.148438 C 249.8125 71.351562 251.777344 70.527344 252.160156 68.566406 C 252.285156 67.929688 252.222656 67.359375 252.730469 66.855469 C 253.046875 66.601562 252.917969 66.09375 252.601562 65.777344 C 252.285156 65.460938 251.714844 65.332031 251.335938 65.585938 C 251.144531 65.714844 250.953125 65.96875 250.765625 66.15625 C 248.230469 66.15625 247.722656 66.726562 247.851562 69.515625 C 247.535156 69.640625 247.21875 69.832031 246.964844 69.957031 C 245.0625 71.097656 242.972656 71.734375 240.691406 71.984375 C 238.539062 72.238281 236.445312 72.808594 234.355469 73.191406 C 232.898438 73.441406 231.441406 73.695312 229.921875 73.949219 C 229.605469 73.507812 229.667969 73.125 230.046875 72.746094 C 230.425781 72.367188 230.808594 71.984375 231.1875 71.605469 C 232.136719 70.65625 233.089844 69.769531 233.976562 68.820312 C 234.925781 67.867188 236.003906 67.042969 237.207031 66.347656 C 237.332031 66.410156 237.460938 66.472656 237.648438 66.539062 C 239.234375 67.234375 240.753906 66.347656 240.628906 64.574219 C 240.566406 63.75 240.882812 63.304688 241.453125 62.863281 C 242.78125 61.785156 244.238281 60.960938 245.949219 60.457031 C 247.597656 60.011719 249.246094 59.503906 250.703125 58.617188 C 250.890625 58.492188 251.144531 58.554688 251.398438 58.617188 C 252.347656 58.933594 253.171875 58.617188 253.996094 58.300781 C 254.757812 57.984375 255.007812 57.222656 255.007812 56.402344 C 255.007812 55.894531 255.007812 55.449219 255.515625 55.070312 C 255.898438 54.816406 255.832031 54.183594 255.515625 53.867188 C 255.199219 53.550781 254.691406 53.550781 254.3125 53.867188 C 254.1875 53.992188 254.058594 54.183594 253.933594 54.308594 C 253.425781 54.246094 252.917969 54.183594 252.476562 54.183594 C 251.335938 54.246094 250.765625 54.816406 250.703125 56.019531 C 250.703125 56.589844 250.636719 57.222656 250.574219 57.921875 C 250.195312 57.984375 249.8125 58.046875 249.496094 58.175781 C 247.785156 58.679688 246.140625 59.25 244.429688 59.820312 C 243.796875 60.011719 243.226562 60.390625 242.65625 60.707031 C 241.640625 61.34375 240.691406 62.039062 239.742188 62.671875 C 237.332031 62.167969 236.257812 63.117188 236.574219 65.523438 C 236.511719 65.585938 236.445312 65.714844 236.320312 65.777344 C 235.6875 66.222656 235.050781 66.664062 234.292969 67.171875 C 234.355469 66.855469 234.355469 66.664062 234.417969 66.539062 C 235.117188 64.382812 235.75 62.167969 236.574219 60.074219 C 237.269531 58.429688 238.285156 56.90625 239.171875 55.324219 C 239.296875 55.132812 239.613281 55.007812 239.804688 54.945312 C 240.246094 54.816406 240.753906 54.816406 241.199219 54.625 C 242.148438 54.246094 242.59375 53.296875 242.339844 52.28125 C 242.210938 51.839844 242.085938 51.460938 242.339844 51.015625 C 242.59375 50.507812 242.023438 49.9375 241.578125 50.191406 C 241.007812 50.445312 240.5 50.320312 239.929688 50.382812 C 238.347656 50.570312 237.398438 52.917969 238.285156 54.246094 C 238.410156 54.4375 238.601562 54.625 238.789062 54.878906 C 238.472656 55.386719 238.21875 55.957031 237.839844 56.464844 C 236.574219 58.238281 235.6875 60.203125 234.925781 62.230469 C 234.230469 64.128906 233.34375 66.03125 232.835938 67.996094 C 232.519531 69.136719 231.820312 69.957031 231.0625 70.71875 C 230.617188 71.164062 230.109375 71.667969 229.667969 72.113281 C 229.414062 71.859375 229.289062 71.480469 229.035156 71.414062 C 228.78125 71.351562 228.527344 71.667969 228.082031 71.859375 C 226.183594 71.734375 225.167969 72.9375 225.675781 74.835938 C 225.800781 75.34375 226.183594 75.851562 226.4375 76.484375 C 225.738281 77.433594 224.914062 78.449219 224.027344 79.589844 C 223.773438 78.828125 223.773438 78.195312 223.839844 77.5625 C 224.15625 74.332031 224.597656 71.097656 224.851562 67.804688 C 225.105469 65.144531 225.929688 62.671875 226.691406 60.140625 C 226.878906 59.441406 227.195312 58.808594 227.449219 58.113281 C 227.703125 58.113281 227.832031 58.113281 228.019531 58.113281 C 229.160156 58.175781 229.859375 57.730469 230.175781 56.652344 C 230.238281 56.402344 230.300781 56.148438 230.300781 55.832031 C 230.300781 55.132812 230.175781 54.4375 230.554688 53.738281 C 230.746094 53.421875 230.554688 53.042969 230.175781 52.789062 C 229.792969 52.535156 229.351562 52.535156 229.097656 52.851562 C 228.71875 53.359375 228.210938 53.359375 227.703125 53.421875 C 226.878906 53.488281 226.4375 53.992188 226.183594 54.753906 C 225.867188 55.894531 226.054688 56.464844 226.941406 57.792969 C 226.5 59.0625 226.054688 60.328125 225.613281 61.597656 C 224.472656 64.765625 223.964844 68.058594 223.710938 71.351562 C 223.585938 73.191406 223.269531 74.964844 223.015625 76.800781 C 222.953125 77.433594 222.824219 78.132812 222.886719 78.765625 C 222.886719 79.335938 222.824219 79.84375 222.636719 80.347656 C 222.253906 81.234375 221.8125 82.058594 221.746094 83.074219 C 221.746094 83.390625 221.496094 83.707031 221.367188 84.085938 C 221.304688 84.023438 221.242188 83.960938 221.242188 83.960938 C 221.496094 81.804688 221.050781 79.714844 220.796875 77.625 C 220.355469 74.519531 219.785156 71.480469 219.339844 68.375 C 219.277344 68.121094 219.277344 67.929688 219.277344 67.679688 C 220.988281 66.664062 221.429688 64.636719 219.53125 63.304688 C 219.53125 63.117188 219.59375 62.925781 219.59375 62.734375 C 219.59375 62.230469 219.277344 61.847656 218.769531 61.847656 C 218.328125 61.785156 217.882812 62.039062 217.820312 62.546875 C 217.757812 62.988281 217.628906 63.304688 217.3125 63.625 C 217.1875 63.75 217.058594 64.003906 217.058594 64.195312 C 217.1875 65.015625 217.25 65.902344 217.503906 66.726562 C 217.691406 67.296875 218.261719 67.550781 218.898438 67.679688 C 218.960938 67.929688 219.023438 68.25 219.085938 68.5 C 219.59375 72.238281 220.039062 75.976562 220.609375 79.714844 C 220.925781 81.804688 220.734375 83.832031 220.355469 85.859375 C 219.910156 88.394531 218.515625 90.550781 217.503906 92.894531 C 217.441406 90.867188 217.503906 88.773438 217.375 86.746094 C 217.25 84.71875 216.996094 82.691406 216.425781 80.730469 C 216.617188 80.601562 216.804688 80.476562 216.996094 80.347656 C 217.882812 79.714844 218.074219 78.386719 217.3125 77.5625 C 217.058594 77.246094 216.804688 76.992188 216.554688 76.675781 C 216.363281 76.484375 216.234375 76.230469 216.171875 76.039062 C 216.046875 75.660156 215.855469 75.34375 215.476562 75.34375 C 215.09375 75.34375 214.90625 75.597656 214.714844 75.914062 C 214.589844 76.167969 214.335938 76.359375 214.144531 76.546875 C 213.449219 76.929688 212.878906 77.371094 212.816406 78.257812 C 212.816406 79.144531 213.386719 79.652344 214.082031 80.09375 C 214.207031 80.160156 214.398438 80.285156 214.589844 80.347656 C 215.730469 80.539062 216.046875 81.425781 216.234375 82.375 C 216.488281 83.644531 216.617188 84.847656 216.804688 86.113281 C 217.1875 88.394531 217.058594 90.675781 216.933594 92.957031 C 216.871094 93.96875 216.679688 94.921875 216.171875 95.808594 C 215.792969 96.566406 215.539062 97.390625 215.285156 98.214844 C 214.90625 99.480469 214.460938 100.75 214.082031 102.078125 C 214.335938 100.371094 214.460938 98.59375 214.082031 96.886719 C 213.449219 93.652344 212.371094 90.675781 209.773438 88.394531 C 208.0625 86.875 206.542969 85.226562 204.957031 83.644531 C 204.070312 82.757812 203.4375 81.742188 202.929688 80.664062 C 202.425781 79.460938 201.792969 78.320312 200.902344 77.371094 C 200.839844 77.246094 200.714844 77.179688 200.652344 77.054688 C 200.207031 76.546875 200.015625 76.546875 199.445312 76.992188 C 199.445312 77.054688 199.382812 77.117188 199.445312 77.117188 C 200.015625 79.144531 199.445312 81.171875 199.636719 83.199219 C 199.761719 84.085938 199.699219 85.039062 199.699219 85.925781 C 199.761719 87.636719 200.144531 89.21875 200.902344 90.738281 C 201.410156 91.816406 201.789062 92.957031 202.359375 93.96875 C 203.121094 95.554688 203.882812 97.203125 204.832031 98.660156 C 205.910156 100.371094 206.796875 102.078125 207.304688 104.105469 C 207.554688 105.3125 207.9375 106.453125 208.191406 107.65625 C 208.507812 108.984375 208.441406 110.316406 208.253906 111.710938 C 208.191406 112.40625 208.0625 113.105469 208 113.800781 C 207.808594 115.195312 207.367188 116.589844 206.796875 117.917969 C 206.734375 117.980469 206.734375 118.109375 206.734375 118.171875 C 194.25 122.925781 183.542969 129.511719 182.152344 148.835938 C 181.328125 147 180.757812 145.097656 180.503906 143.132812 C 180.375 142.121094 180.25 141.105469 180.058594 140.09375 C 179.808594 138.128906 179.742188 136.164062 180.125 134.265625 C 180.503906 132.554688 181.011719 130.84375 181.453125 129.132812 C 182.152344 126.28125 183.480469 123.746094 185 121.277344 C 186.332031 119.121094 187.472656 116.777344 188.613281 114.433594 C 189.375 112.914062 189.945312 111.265625 190.703125 109.746094 C 191.78125 107.527344 192.351562 105.183594 192.414062 102.714844 C 192.414062 101.382812 192.351562 100.050781 192.542969 98.722656 C 192.859375 95.746094 192.035156 92.765625 192.859375 89.851562 C 192.859375 89.789062 192.859375 89.726562 192.792969 89.597656 C 191.90625 88.964844 191.71875 88.964844 191.019531 89.726562 C 190.894531 89.851562 190.765625 90.042969 190.640625 90.167969 C 189.375 91.5625 188.488281 93.210938 187.726562 94.921875 C 186.964844 96.566406 186.015625 98.023438 184.8125 99.292969 C 182.46875 101.636719 180.25 104.042969 177.78125 106.199219 C 174.105469 109.492188 172.457031 113.863281 171.570312 118.488281 C 171.0625 120.960938 171.253906 123.492188 171.570312 125.964844 C 171 124.128906 170.429688 122.289062 169.859375 120.453125 C 169.480469 119.25 169.164062 118.046875 168.53125 116.90625 C 167.832031 115.574219 167.515625 114.246094 167.453125 112.785156 C 167.261719 109.492188 167.070312 106.199219 167.640625 102.902344 C 167.894531 101.128906 168.148438 99.292969 168.464844 97.519531 C 168.71875 96.125 169.164062 94.792969 170.875 94.539062 C 171.128906 94.476562 171.316406 94.351562 171.570312 94.222656 C 172.585938 93.589844 173.40625 92.832031 173.40625 91.5625 C 173.40625 90.296875 172.519531 89.664062 171.507812 89.09375 C 171.191406 88.902344 170.875 88.585938 170.683594 88.207031 C 170.429688 87.761719 170.175781 87.382812 169.605469 87.445312 C 168.972656 87.507812 168.71875 87.886719 168.59375 88.457031 C 168.464844 88.773438 168.277344 89.09375 168.023438 89.410156 C 167.640625 89.851562 167.261719 90.234375 166.882812 90.675781 C 165.867188 91.878906 166.121094 93.78125 167.390625 94.730469 C 167.640625 94.921875 167.894531 95.046875 168.148438 95.238281 C 167.261719 98.089844 166.945312 101.003906 166.753906 103.980469 C 166.566406 106.957031 166.628906 109.9375 166.566406 112.914062 C 165.171875 109.554688 163.144531 106.453125 162.449219 102.777344 C 161.941406 99.800781 161.625 96.886719 162.066406 93.84375 C 162.828125 88.457031 163.523438 83.011719 164.285156 77.5625 C 164.347656 77.117188 164.476562 76.738281 164.539062 76.359375 C 165.425781 76.105469 166.3125 75.789062 166.566406 74.964844 C 166.882812 73.761719 167.007812 72.492188 167.199219 71.289062 C 167.199219 71.035156 167.007812 70.65625 166.820312 70.464844 C 166.3125 70.023438 166.121094 69.515625 166.058594 68.882812 C 165.996094 68.25 165.363281 67.867188 164.726562 67.929688 C 164.03125 67.996094 163.585938 68.5 163.585938 69.261719 C 163.585938 69.578125 163.652344 69.832031 163.714844 70.085938 C 160.925781 71.921875 161.625 74.964844 164.09375 76.359375 C 164.03125 76.675781 164.03125 76.992188 163.96875 77.371094 C 163.269531 81.804688 162.449219 86.304688 161.8125 90.738281 C 161.371094 93.78125 160.738281 96.820312 161.117188 99.925781 C 161.117188 99.988281 161.054688 100.050781 160.925781 100.117188 C 160.738281 99.609375 160.421875 99.164062 160.355469 98.660156 C 160.230469 97.203125 159.597656 95.996094 159.089844 94.730469 C 158.773438 93.96875 158.644531 93.273438 158.710938 92.449219 C 158.773438 91.5 158.644531 90.550781 158.519531 89.597656 C 158.203125 87 157.757812 84.339844 157.503906 81.742188 C 157.125 76.929688 156.363281 72.175781 154.71875 67.613281 C 154.085938 65.777344 153.449219 63.941406 152.816406 62.101562 C 154.148438 60.140625 154.335938 59.316406 153.894531 57.730469 C 153.578125 56.589844 152.878906 55.894531 151.742188 55.765625 C 150.980469 55.703125 150.28125 55.703125 149.710938 54.945312 C 149.332031 54.4375 148.699219 54.5 148.191406 54.878906 C 147.683594 55.195312 147.433594 55.765625 147.683594 56.210938 C 148.191406 57.222656 148.066406 58.238281 148.066406 59.25 C 148.066406 59.632812 148.191406 60.011719 148.253906 60.390625 C 148.699219 61.976562 149.714844 62.671875 151.359375 62.546875 C 151.613281 62.546875 151.867188 62.546875 152.183594 62.484375 C 152.5625 63.496094 152.945312 64.445312 153.261719 65.460938 C 154.402344 69.136719 155.605469 72.746094 155.921875 76.546875 C 156.363281 81.234375 156.933594 85.925781 157.378906 90.675781 C 157.503906 91.5625 157.441406 92.511719 157.125 93.589844 C 155.859375 91.941406 154.71875 90.484375 153.640625 89.15625 C 154.085938 88.269531 154.589844 87.570312 154.78125 86.8125 C 155.542969 84.152344 154.019531 82.375 151.296875 82.566406 C 150.726562 82.25 150.28125 81.871094 149.964844 81.933594 C 149.585938 81.996094 149.394531 82.566406 149.015625 82.945312 C 148.320312 82.25 147.683594 81.554688 146.988281 80.917969 C 145.847656 79.777344 144.835938 78.703125 144.390625 76.992188 C 143.566406 74.140625 142.363281 71.414062 141.351562 68.691406 C 140.210938 65.777344 138.941406 62.925781 137.105469 60.390625 C 136.597656 59.695312 136.15625 58.871094 135.773438 58.113281 C 136.089844 57.730469 136.34375 57.476562 136.535156 57.222656 C 137.800781 55.324219 136.410156 51.964844 134.128906 51.648438 C 133.304688 51.523438 132.542969 51.648438 131.71875 51.332031 C 131.023438 51.015625 130.261719 51.839844 130.578125 52.535156 C 130.960938 53.234375 130.707031 53.804688 130.515625 54.375 C 130.136719 55.894531 130.769531 57.222656 132.226562 57.792969 C 132.859375 58.046875 133.558594 58.046875 134.253906 58.238281 C 134.570312 58.300781 135.078125 58.492188 135.203125 58.746094 C 136.472656 61.027344 137.929688 63.179688 138.941406 65.585938 C 140.210938 68.628906 141.097656 71.859375 142.109375 74.964844 C 142.171875 75.21875 142.171875 75.472656 142.238281 75.914062 C 141.160156 75.152344 140.210938 74.519531 139.324219 73.824219 C 139.195312 73.695312 139.070312 73.570312 138.941406 73.507812 C 139.386719 70.085938 137.800781 68.628906 134.316406 69.386719 C 132.988281 68.4375 131.59375 67.425781 130.136719 66.539062 C 129.3125 66.03125 128.488281 65.523438 127.601562 65.207031 C 125.195312 64.382812 122.722656 63.625 120.316406 62.863281 C 119.808594 62.671875 119.238281 62.609375 118.730469 62.484375 C 118.667969 61.46875 118.605469 60.644531 118.542969 59.757812 C 118.480469 58.113281 117.589844 57.222656 115.945312 57.160156 C 115.246094 57.160156 114.550781 57.289062 113.855469 57.351562 C 113.664062 57.160156 113.472656 56.90625 113.285156 56.71875 C 112.714844 56.210938 112.015625 56.210938 111.507812 56.71875 C 111.066406 57.160156 110.9375 58.046875 111.507812 58.492188 C 112.207031 59 112.269531 59.632812 112.269531 60.390625 C 112.269531 61.53125 112.585938 62.609375 113.726562 63.117188 C 114.929688 63.625 116.132812 64.066406 117.527344 63.558594 C 117.84375 63.433594 118.226562 63.433594 118.480469 63.558594 C 120.632812 64.828125 122.976562 65.585938 125.382812 66.222656 C 127.792969 66.917969 129.945312 68.121094 131.910156 69.707031 C 132.734375 70.339844 133.175781 70.972656 133.113281 72.175781 C 132.988281 74.710938 135.203125 76.039062 137.484375 75.027344 C 137.675781 74.964844 137.867188 74.835938 138.054688 74.773438 C 139.765625 75.722656 141.351562 76.929688 142.742188 78.320312 C 144.074219 79.714844 145.46875 80.984375 146.796875 82.375 C 147.367188 82.945312 147.875 83.515625 148.445312 84.085938 C 149.015625 84.65625 149.078125 85.164062 148.636719 85.796875 C 146.480469 85.417969 144.328125 85.101562 142.238281 84.71875 C 139.132812 84.152344 136.089844 83.328125 133.050781 83.011719 C 129.757812 82.691406 126.777344 81.804688 123.992188 80.09375 C 123.546875 79.84375 123.105469 79.652344 122.660156 79.398438 C 122.851562 75.472656 122.089844 74.582031 118.414062 74.582031 C 118.160156 74.332031 117.910156 74.011719 117.589844 73.761719 C 117.019531 73.378906 116.261719 73.507812 115.816406 74.011719 C 115.375 74.457031 115.183594 75.152344 115.628906 75.535156 C 116.386719 76.230469 116.261719 77.117188 116.453125 78.003906 C 116.957031 80.855469 119.871094 82.058594 122.089844 80.285156 C 122.152344 80.222656 122.28125 80.222656 122.535156 80.160156 C 123.863281 80.855469 125.257812 81.554688 126.652344 82.3125 C 127.664062 82.882812 128.742188 83.261719 129.945312 83.390625 C 131.53125 83.582031 133.113281 83.832031 134.699219 84.152344 C 137.992188 84.847656 141.351562 85.542969 144.644531 86.304688 C 145.65625 86.496094 146.671875 86.8125 147.683594 87.066406 C 148.382812 87.253906 148.890625 87.636719 149.144531 88.394531 C 149.523438 89.597656 150.472656 90.042969 151.738281 89.914062 C 152.121094 89.851562 152.5 89.789062 152.945312 89.726562 C 154.273438 91.371094 155.605469 92.957031 156.871094 94.605469 C 157.570312 95.554688 158.203125 96.632812 158.773438 97.707031 C 159.851562 99.925781 160.863281 102.207031 161.878906 104.425781 C 161.878906 104.425781 161.878906 104.488281 161.878906 104.550781 C 161.878906 104.550781 161.8125 104.613281 161.6875 104.675781 C 161.117188 104.105469 160.484375 103.539062 159.851562 102.902344 C 158.203125 101.257812 156.300781 99.988281 154.085938 99.230469 C 152.308594 98.59375 150.601562 97.960938 148.824219 97.328125 C 146.355469 96.503906 143.882812 95.746094 141.414062 94.921875 C 139.894531 94.414062 138.371094 93.90625 136.976562 93.082031 C 137.296875 91.5 136.789062 90.421875 135.457031 89.789062 C 134.632812 89.34375 133.746094 89.28125 132.796875 89.472656 C 132.417969 89.535156 131.972656 89.535156 131.53125 89.410156 C 130.707031 89.21875 130.136719 89.34375 129.820312 89.914062 C 129.503906 90.484375 129.628906 91.121094 130.199219 91.691406 C 130.453125 91.941406 130.707031 92.132812 130.894531 92.449219 C 131.339844 93.082031 131.65625 93.78125 132.101562 94.476562 C 132.859375 95.679688 134.128906 95.871094 135.269531 95.046875 C 135.519531 94.859375 135.773438 94.605469 136.027344 94.351562 C 136.40625 93.96875 136.726562 93.90625 137.167969 94.160156 C 139.070312 95.300781 141.160156 95.996094 143.25 96.757812 C 145.214844 97.453125 147.117188 98.277344 149.078125 98.976562 C 151.738281 99.925781 154.335938 100.875 156.746094 102.523438 C 158.835938 103.980469 160.671875 105.691406 162.445312 107.402344 C 164.726562 109.554688 165.550781 112.597656 166.945312 115.382812 C 166.375 115.132812 165.867188 114.8125 165.425781 114.433594 C 162.699219 112.089844 159.53125 110.695312 156.113281 109.621094 C 154.527344 109.113281 153.070312 108.414062 151.550781 107.84375 C 151.613281 106.070312 151.613281 104.488281 149.902344 103.664062 C 148.320312 102.902344 147.179688 103.917969 146.101562 104.804688 C 145.910156 104.804688 145.847656 104.804688 145.785156 104.742188 C 145.152344 104.488281 144.582031 104.550781 144.199219 105.183594 C 143.882812 105.691406 144.074219 106.261719 144.898438 106.769531 C 145.339844 107.023438 145.53125 107.402344 145.722656 107.84375 C 145.847656 108.160156 145.976562 108.480469 146.164062 108.796875 C 147.179688 110.441406 149.078125 110.695312 150.535156 109.429688 C 150.789062 109.238281 150.980469 108.984375 151.234375 108.730469 C 151.738281 108.921875 152.246094 109.175781 152.753906 109.367188 C 153.578125 109.683594 154.402344 110.125 155.289062 110.378906 C 158.265625 111.328125 161.054688 112.535156 163.523438 114.496094 C 164.726562 115.449219 166.058594 116.398438 167.070312 117.539062 C 168.464844 119.058594 169.417969 120.898438 169.921875 122.988281 C 170.429688 125.140625 171.125 127.230469 171.824219 129.386719 C 172.015625 129.957031 172.203125 130.589844 172.710938 131.035156 C 172.964844 132.046875 173.21875 133.0625 173.40625 134.074219 C 172.519531 132.679688 171.632812 131.414062 170.808594 130.082031 C 168.910156 127.230469 166.503906 124.824219 163.90625 122.671875 C 162.320312 121.402344 160.546875 120.390625 158.710938 119.503906 C 156.554688 118.363281 154.464844 117.09375 152.308594 116.082031 C 150.03125 115.066406 148.128906 113.484375 146.292969 111.898438 C 144.011719 109.9375 141.984375 107.71875 140.335938 105.121094 C 139.828125 104.296875 139.195312 103.539062 138.5 102.839844 C 138.308594 102.585938 137.800781 102.398438 137.484375 102.460938 C 137.230469 102.523438 136.976562 103.03125 136.851562 103.347656 C 136.726562 103.601562 136.789062 103.917969 136.789062 104.171875 C 136.914062 105.628906 136.914062 107.148438 137.167969 108.605469 C 137.738281 111.773438 138.371094 114.941406 139.070312 118.171875 C 139.386719 119.628906 139.640625 121.085938 140.144531 122.480469 C 141.476562 126.21875 143.566406 129.386719 146.863281 131.667969 C 147.242188 131.921875 147.496094 132.238281 147.875 132.425781 C 148.699219 132.933594 149.460938 133.441406 150.347656 133.820312 C 154.019531 135.53125 157.949219 136.355469 161.941406 136.988281 C 162.953125 137.179688 164.03125 137.433594 165.042969 137.6875 C 168.464844 138.636719 171.507812 140.472656 174.675781 141.992188 C 176.386719 142.816406 177.460938 144.148438 178.414062 145.730469 C 179.425781 147.441406 180.628906 149.027344 181.707031 150.671875 C 181.898438 150.925781 182.085938 151.054688 182.402344 151.308594 C 182.214844 158.085938 183.039062 166.386719 185.253906 176.585938 C 186.140625 180.640625 186.839844 184.378906 187.410156 187.800781 C 185.507812 188.625 183.671875 189.257812 182.023438 189.765625 C 173.535156 192.296875 163.585938 199.648438 161.75 209.722656 C 161.496094 211.242188 161.371094 212.953125 161.558594 214.851562 C 161.242188 214.027344 160.925781 213.140625 160.671875 212.316406 C 160.230469 210.796875 159.660156 209.402344 159.152344 207.882812 C 158.960938 207.441406 158.898438 206.933594 159.027344 206.425781 C 159.40625 204.398438 159.722656 202.371094 160.230469 200.40625 C 160.546875 199.140625 161.179688 197.9375 161.6875 196.734375 C 161.8125 196.417969 162.128906 196.097656 162.445312 195.972656 C 163.585938 195.402344 164.285156 194.390625 164.222656 193.058594 C 164.15625 191.917969 163.652344 190.96875 162.699219 190.335938 C 162.003906 189.828125 161.179688 189.765625 160.417969 190.144531 C 159.597656 190.585938 159.152344 191.285156 159.089844 192.234375 C 159.089844 193.058594 159.40625 193.820312 159.976562 194.390625 C 160.417969 194.894531 160.417969 195.339844 160.101562 195.910156 C 158.582031 198.570312 157.886719 201.421875 157.316406 204.398438 C 157.253906 204.777344 157.125 205.160156 157 205.667969 C 156.808594 205.476562 156.683594 205.414062 156.617188 205.285156 C 155.289062 203.890625 154.019531 202.433594 152.691406 201.105469 C 152.246094 200.660156 151.929688 200.21875 151.867188 199.582031 C 151.804688 199.078125 151.738281 198.570312 151.738281 198 C 151.675781 197.429688 151.613281 196.796875 151.550781 196.226562 C 151.421875 194.957031 151.234375 193.691406 151.234375 192.363281 C 151.296875 187.671875 151.804688 182.984375 152.816406 178.421875 C 153.515625 175.507812 153.832031 172.53125 153.640625 169.488281 C 153.515625 167.460938 153.261719 165.433594 153.007812 163.40625 C 152.628906 160.683594 152.4375 157.960938 152.375 155.171875 C 152.308594 151.75 153.324219 148.519531 154.78125 145.414062 C 154.972656 145.035156 155.160156 144.65625 155.289062 144.273438 C 155.351562 144.085938 155.160156 143.894531 155.097656 143.640625 C 154.90625 143.703125 154.589844 143.769531 154.464844 143.894531 C 154.210938 144.273438 153.957031 144.71875 153.765625 145.160156 C 153.261719 146.300781 152.816406 147.441406 152.308594 148.644531 C 151.421875 150.738281 150.472656 152.828125 149.648438 154.980469 C 148.574219 157.894531 148.507812 160.875 149.394531 163.914062 C 150.09375 166.324219 150.601562 168.855469 151.488281 171.199219 C 151.613281 171.515625 151.675781 171.835938 151.613281 172.152344 C 151.550781 174.050781 151.613281 175.890625 150.980469 177.726562 C 150.472656 179.183594 150.28125 180.640625 150.410156 182.160156 C 150.472656 182.730469 150.472656 183.363281 150.410156 183.933594 C 150.28125 186.53125 150.15625 189.128906 150.03125 191.726562 C 149.964844 193.183594 150.03125 194.640625 150.347656 196.097656 C 150.472656 196.734375 150.601562 197.367188 150.535156 198.125 C 150.410156 197.9375 150.347656 197.746094 150.21875 197.621094 C 149.269531 195.847656 148.382812 194.070312 147.433594 192.363281 C 146.863281 191.285156 146.480469 190.207031 146.355469 189.003906 C 146.039062 186.597656 145.847656 184.1875 145.40625 181.78125 C 145.089844 179.945312 145.023438 178.042969 144.835938 176.207031 C 144.519531 172.910156 143.757812 169.679688 142.871094 166.511719 C 142.742188 166.003906 142.492188 165.5625 142.300781 165.054688 C 141.667969 163.535156 141.03125 161.949219 140.335938 160.492188 C 139.894531 159.542969 139.386719 158.65625 138.816406 157.769531 C 138.308594 156.945312 137.738281 156.183594 137.230469 155.425781 C 137.105469 155.234375 136.976562 154.980469 136.789062 154.855469 C 136.660156 154.792969 136.472656 154.726562 136.34375 154.726562 C 136.21875 154.792969 136.15625 154.980469 136.089844 155.109375 C 136.027344 155.234375 136.089844 155.363281 136.15625 155.488281 C 137.042969 158.65625 137.167969 161.949219 137.359375 165.183594 C 137.546875 168.414062 138.941406 171.011719 140.90625 173.355469 C 142.238281 174.9375 143.058594 176.648438 143.628906 178.550781 C 144.136719 180.324219 144.453125 182.222656 144.644531 184.0625 C 144.898438 186.53125 145.40625 189.003906 145.976562 191.410156 C 146.164062 192.363281 146.796875 193.183594 147.242188 194.007812 C 147.75 194.957031 148.253906 195.847656 148.636719 196.796875 C 147.8125 196.164062 147.117188 195.402344 146.546875 194.578125 C 145.40625 192.804688 144.011719 191.285156 142.363281 189.953125 C 141.792969 189.511719 141.414062 188.8125 140.96875 188.304688 C 139.957031 187.167969 138.941406 186.027344 137.929688 184.886719 C 137.738281 184.695312 137.546875 184.503906 137.359375 184.25 C 136.28125 182.289062 135.015625 180.386719 134.128906 178.296875 C 133.050781 175.824219 132.164062 173.226562 131.277344 170.695312 C 131.085938 170.1875 131.023438 169.617188 130.894531 169.046875 C 130.769531 168.476562 130.769531 168.03125 131.214844 167.527344 C 131.71875 167.019531 131.71875 166.324219 131.464844 165.6875 C 130.960938 164.484375 130.074219 163.726562 128.804688 163.34375 C 128.425781 163.21875 127.980469 163.28125 127.601562 163.34375 C 126.335938 163.660156 125.765625 164.863281 126.460938 166.003906 C 127.03125 166.957031 127.792969 167.78125 128.933594 168.160156 C 129.375 168.285156 129.503906 168.601562 129.628906 168.984375 C 130.074219 171.265625 131.023438 173.417969 131.910156 175.570312 C 132.859375 178.042969 133.875 180.515625 135.332031 182.730469 C 135.394531 182.792969 135.332031 182.859375 135.332031 182.921875 C 135.269531 182.921875 135.203125 183.046875 135.203125 182.984375 C 133.304688 181.972656 131.339844 181.210938 129.628906 179.753906 C 127.917969 178.296875 126.019531 177.15625 124.179688 175.890625 C 122.976562 175.066406 121.773438 174.304688 120.824219 173.226562 C 120.507812 172.785156 120.316406 172.40625 120.253906 171.835938 C 120.1875 169.617188 120.507812 167.460938 120.886719 165.308594 C 121.644531 161.128906 119.238281 156.945312 115.753906 155.046875 C 112.078125 153.019531 108.339844 150.992188 104.414062 149.46875 C 103.148438 148.964844 101.816406 148.710938 100.550781 148.328125 C 100.296875 148.265625 100.042969 148.265625 99.851562 148.265625 C 99.15625 148.265625 98.902344 148.644531 99.21875 149.28125 C 99.789062 150.230469 100.296875 151.179688 100.992188 151.941406 C 103.019531 154.09375 105.046875 156.121094 107.136719 158.148438 C 108.214844 159.164062 109.480469 160.050781 110.6875 160.9375 C 111.953125 161.824219 112.964844 162.835938 113.789062 164.167969 C 114.550781 165.371094 115.246094 166.574219 116.070312 167.90625 C 115.753906 167.84375 115.5625 167.78125 115.375 167.78125 C 115.3125 168.285156 115.5625 168.539062 115.882812 168.792969 C 116.703125 169.554688 117.339844 170.441406 117.972656 171.390625 C 118.984375 173.039062 120.316406 174.433594 121.898438 175.570312 C 122.46875 175.953125 122.976562 176.460938 123.484375 176.839844 C 123.421875 176.902344 123.355469 177.03125 123.292969 177.09375 C 122.152344 176.648438 121.011719 176.207031 119.9375 175.636719 C 118.796875 175.066406 117.65625 174.496094 116.515625 173.796875 C 115.5 173.164062 114.488281 172.46875 113.535156 171.707031 C 111.828125 170.1875 109.863281 168.917969 107.835938 167.84375 C 107.265625 167.527344 106.757812 167.210938 106.3125 166.765625 C 104.730469 164.992188 103.210938 163.21875 101.691406 161.378906 C 101.371094 161 101.183594 160.492188 100.867188 159.988281 C 101.054688 159.796875 101.246094 159.605469 101.4375 159.417969 C 101.753906 159.035156 101.816406 158.59375 101.753906 158.148438 C 101.5 156.753906 99.726562 155.234375 98.269531 155.296875 C 97.570312 155.296875 96.875 155.550781 96.429688 156.121094 C 95.796875 156.945312 95.796875 158.085938 96.621094 158.78125 C 97.128906 159.164062 97.761719 159.480469 98.332031 159.671875 C 99.027344 159.859375 99.597656 160.113281 99.980469 160.683594 C 101.4375 162.902344 103.527344 164.613281 105.238281 166.574219 C 105.363281 166.765625 105.554688 166.957031 105.617188 167.273438 C 105.238281 167.210938 104.855469 167.144531 104.476562 166.957031 C 102.257812 166.070312 100.042969 165.054688 97.824219 164.230469 C 95.796875 163.472656 93.707031 162.773438 91.617188 162.078125 C 90.855469 161.824219 90.03125 161.824219 89.273438 161.824219 C 87.308594 161.824219 85.40625 161.949219 83.441406 162.078125 C 79.515625 162.332031 75.777344 163.40625 72.230469 165.183594 C 70.136719 166.195312 68.109375 167.210938 65.894531 167.84375 C 65.261719 168.03125 64.625 168.285156 64.054688 168.601562 C 63.867188 168.730469 63.613281 169.109375 63.675781 169.363281 C 63.738281 169.617188 64.054688 169.808594 64.308594 169.933594 C 64.5625 170.058594 64.945312 170.058594 65.261719 169.933594 C 67.792969 169.300781 70.265625 169.679688 72.734375 170.1875 C 75.777344 170.820312 78.816406 170.757812 81.859375 170.441406 C 83.886719 170.25 85.722656 169.617188 87.308594 168.285156 C 88.765625 167.019531 90.539062 166.511719 92.3125 166.003906 C 92.628906 165.941406 93.011719 165.816406 93.328125 165.6875 C 94.214844 165.308594 95.164062 165.246094 96.113281 165.5 C 97.824219 165.941406 99.535156 166.449219 101.246094 166.957031 C 102.070312 167.210938 102.828125 167.398438 103.652344 167.652344 C 107.519531 168.917969 111.003906 170.882812 114.296875 173.292969 C 116.386719 174.8125 118.480469 176.140625 120.824219 177.21875 C 118.542969 176.585938 116.261719 176.078125 114.042969 175.382812 C 112.398438 174.875 110.875 174.113281 109.292969 173.480469 C 107.582031 172.785156 105.808594 172.214844 103.96875 172.085938 C 102.578125 172.023438 101.183594 172.152344 99.851562 172.722656 C 97.066406 173.863281 94.339844 175.003906 91.550781 176.140625 C 89.96875 176.777344 88.574219 177.789062 87.308594 178.929688 C 86.105469 180.007812 84.710938 180.894531 83.441406 181.90625 C 83.378906 181.972656 83.316406 181.972656 83.253906 182.035156 C 83.125 182.222656 82.871094 182.542969 82.9375 182.667969 C 83 182.859375 83.316406 183.113281 83.507812 183.113281 C 84.773438 183.238281 86.039062 183.429688 87.246094 183.300781 C 88.890625 183.175781 90.476562 183.113281 92.121094 183.046875 C 94.148438 182.984375 96.242188 182.859375 98.269531 182.476562 C 99.789062 182.160156 101.308594 181.527344 102.765625 180.832031 C 104.539062 180.007812 106.441406 179.5625 108.34375 179.058594 C 109.417969 178.804688 110.433594 178.488281 111.507812 178.421875 C 113.347656 178.234375 115.183594 178.167969 117.023438 178.421875 C 117.910156 178.550781 118.730469 178.675781 119.617188 178.675781 C 121.011719 178.675781 122.34375 178.867188 123.671875 179.5 C 126.269531 180.640625 128.867188 181.65625 131.464844 182.730469 C 132.101562 182.984375 132.734375 183.175781 133.367188 183.363281 C 134.570312 183.683594 135.519531 184.378906 136.660156 185.328125 C 136.21875 185.203125 135.964844 185.140625 135.773438 185.011719 C 135.519531 184.949219 135.269531 184.820312 135.015625 184.695312 C 133.746094 184.1875 132.480469 184 131.148438 184.125 C 130.136719 184.1875 129.121094 184.316406 128.109375 184.378906 C 127.347656 184.441406 126.714844 184.316406 126.082031 183.808594 C 125.511719 183.429688 124.878906 183.113281 124.242188 182.921875 C 123.421875 182.730469 122.722656 183.046875 122.214844 183.746094 C 121.710938 184.441406 121.835938 185.140625 122.214844 185.835938 C 123.039062 187.292969 124.5625 187.800781 125.890625 186.976562 C 126.398438 186.660156 126.714844 186.027344 127.222656 185.390625 C 129.375 185.265625 131.71875 185.074219 134.0625 185.457031 C 134.886719 185.582031 135.585938 186.027344 136.34375 186.40625 C 137.421875 186.976562 138.5625 187.546875 139.574219 188.242188 C 140.335938 188.75 141.097656 189.382812 141.730469 190.015625 C 143.441406 191.855469 145.152344 193.820312 146.796875 195.71875 C 146.863281 195.78125 146.925781 195.847656 147.117188 196.035156 C 145.46875 195.71875 144.074219 195.402344 142.742188 194.707031 C 140.96875 193.820312 139.070312 193.566406 137.105469 193.121094 C 133.429688 192.296875 129.757812 192.488281 126.082031 192.929688 C 125.132812 193.058594 124.179688 193.121094 123.292969 193.121094 C 121.265625 193.183594 119.300781 193.566406 117.402344 194.390625 C 117.023438 194.578125 116.515625 194.640625 116.132812 194.832031 C 115.816406 194.957031 115.4375 195.148438 115.628906 195.59375 C 115.753906 195.972656 116.070312 196.035156 116.386719 195.910156 C 119.808594 194.957031 123.105469 196.035156 126.335938 196.859375 C 128.234375 197.304688 130.074219 198 131.972656 198.445312 C 133.242188 198.761719 134.507812 198.949219 135.773438 199.078125 C 137.167969 199.203125 138.4375 199.015625 139.765625 198.507812 C 141.730469 197.746094 143.757812 197.554688 145.785156 197.554688 C 146.292969 197.554688 146.925781 197.746094 147.367188 198 C 150.410156 199.773438 152.878906 202.117188 155.160156 204.714844 C 155.730469 205.414062 156.175781 206.171875 156.683594 206.933594 C 156.617188 206.996094 156.617188 207.058594 156.554688 207.125 C 155.226562 206.871094 153.957031 206.617188 152.628906 206.300781 C 151.675781 206.046875 150.664062 205.792969 149.710938 205.476562 C 149.332031 205.347656 149.015625 205.160156 148.761719 204.90625 C 148.191406 204.398438 147.558594 204.082031 146.796875 203.957031 C 145.59375 203.765625 144.769531 204.527344 144.835938 205.730469 C 144.898438 206.933594 145.40625 207.945312 146.480469 208.582031 C 147.558594 209.214844 148.320312 209.085938 149.078125 208.074219 C 149.144531 208.011719 149.207031 207.945312 149.394531 207.757812 C 149.964844 207.882812 150.601562 208.074219 151.234375 208.261719 C 152.375 208.515625 153.449219 208.832031 154.589844 209.023438 C 155.796875 209.277344 156.871094 209.722656 157.757812 210.542969 C 158.074219 210.859375 158.582031 211.113281 158.898438 211.429688 C 159.152344 211.683594 159.40625 212 159.53125 212.316406 C 160.292969 214.09375 161.433594 215.992188 162.320312 217.832031 C 163.269531 221.316406 165.296875 225.179688 168.972656 229.296875 C 165.550781 231.070312 161.8125 233.097656 157.949219 235.695312 C 154.464844 238.039062 152.753906 240.511719 152.628906 243.171875 C 152.375 248.304688 158.328125 253.183594 165.234375 258.820312 C 175.183594 266.929688 186.460938 276.179688 182.402344 288.660156 C 179.871094 296.582031 175.625 301.648438 169.796875 303.804688 C 169.226562 302.410156 168.59375 301.015625 167.894531 299.621094 C 158.960938 281.375 150.28125 279.285156 145.910156 279.601562 C 140.90625 279.980469 137.546875 283.910156 136.410156 287.585938 C 135.269531 291.449219 136.34375 295.25 139.257812 297.59375 C 145.089844 302.15625 157.757812 308.933594 168.847656 305.832031 C 172.015625 314.320312 172.015625 321.097656 168.78125 326.167969 C 162.511719 335.988281 146.039062 335.796875 145.847656 335.796875 L 145.847656 337.382812 C 145.910156 337.382812 145.976562 337.382812 146.101562 337.382812 C 148.445312 337.382812 163.777344 337 170.113281 327.054688 C 173.597656 321.605469 173.660156 314.320312 170.367188 305.386719 C 176.640625 303.042969 181.199219 297.65625 183.925781 289.230469 C 188.296875 275.671875 176.070312 265.726562 166.25 257.679688 C 159.976562 252.550781 154.019531 247.671875 154.210938 243.363281 C 154.273438 241.207031 155.796875 239.179688 158.835938 237.152344 C 162.765625 234.492188 166.628906 232.464844 170.113281 230.628906 C 171.886719 232.464844 174.042969 234.429688 176.574219 236.394531 C 195.203125 250.710938 211.863281 262.242188 228.273438 263.066406 C 223.207031 267.058594 217.1875 278.96875 217.1875 313.433594 L 218.769531 313.433594 C 218.769531 278.019531 225.296875 267.5 229.160156 264.398438 C 229.984375 263.699219 230.808594 263.320312 231.441406 263.128906 C 239.550781 262.875 247.660156 259.835938 255.960938 253.121094 C 271.734375 240.386719 273.382812 235.0625 276.675781 224.484375 C 278.769531 217.765625 281.617188 208.644531 289.664062 193.820312 C 302.019531 171.011719 298.34375 159.796875 295.113281 149.976562 C 293.339844 147.125 292.453125 144.527344 291.945312 141.742188 Z M 227.578125 184.695312 C 227.386719 184.503906 227.511719 184 227.640625 183.679688 C 228.019531 182.730469 228.402344 182.222656 228.96875 182.035156 C 229.097656 181.972656 229.289062 181.972656 229.476562 181.972656 C 230.679688 181.972656 232.457031 183.046875 234.292969 184.125 C 234.484375 184.25 234.609375 184.316406 234.800781 184.441406 C 231.378906 185.074219 228.273438 185.519531 227.578125 184.695312 Z M 242.71875 206.554688 C 242.023438 207.25 240.4375 207.441406 237.96875 207.125 C 231.125 206.171875 225.738281 206.742188 222.699219 207.3125 C 225.421875 204.84375 230.746094 200.851562 236.761719 200.851562 C 238.789062 200.851562 240.945312 201.292969 243.097656 202.371094 C 243.414062 204.335938 243.480469 205.855469 242.71875 206.554688 Z M 227.832031 71.605469 C 227.957031 71.605469 227.894531 71.605469 227.832031 71.605469 Z M 237.082031 86.9375 C 237.144531 86.9375 237.207031 86.9375 237.269531 87 C 237.144531 88.140625 237.015625 89.28125 236.828125 90.421875 C 236.511719 92.261719 236.003906 94.097656 235.75 95.996094 C 235.433594 98.023438 234.734375 99.863281 233.785156 101.574219 C 233.53125 102.015625 233.277344 102.398438 232.960938 102.777344 C 230.746094 105.3125 227.894531 106.832031 224.597656 107.59375 C 223.140625 107.910156 221.621094 108.160156 220.164062 108.480469 C 219.59375 108.605469 219.085938 108.730469 218.515625 108.859375 C 215.917969 109.621094 213.574219 110.886719 211.230469 112.089844 C 210.976562 112.214844 210.789062 112.34375 210.535156 112.46875 C 211.546875 110.886719 212.878906 109.554688 214.398438 108.480469 C 215.03125 108.035156 215.664062 107.65625 216.234375 107.210938 C 218.199219 105.753906 220.226562 104.488281 222.445312 103.472656 C 224.789062 102.460938 227.261719 101.828125 229.792969 101.320312 C 230.109375 101.257812 230.554688 101.257812 230.871094 100.8125 C 228.527344 100.875 226.5 101.828125 224.28125 102.078125 C 225.234375 101.320312 226.246094 100.621094 227.195312 99.925781 C 227.261719 99.925781 227.324219 99.925781 227.324219 99.863281 C 227.765625 99.609375 228.210938 99.355469 228.589844 99.039062 C 229.035156 98.722656 229.414062 98.34375 229.792969 97.960938 C 231.566406 96.378906 233.34375 94.792969 234.546875 92.703125 C 235.304688 91.371094 235.941406 90.042969 236.445312 88.585938 C 236.699219 88.015625 236.890625 87.445312 237.082031 86.9375 Z M 213.320312 107.023438 C 214.714844 104.550781 216.425781 102.398438 218.582031 100.558594 C 219.46875 99.800781 220.417969 99.101562 221.367188 98.53125 C 222.699219 97.773438 224.15625 97.203125 225.484375 96.441406 C 227.132812 95.554688 228.96875 94.855469 230.492188 93.652344 C 232.582031 92.007812 234.484375 90.234375 236.003906 88.015625 C 236.191406 87.761719 236.382812 87.507812 236.511719 87.253906 C 235.621094 91.054688 232.644531 95.554688 230.300781 96.757812 C 230.746094 96.125 231.1875 95.554688 231.566406 94.984375 C 232.519531 93.527344 232.519531 93.527344 232.457031 93.019531 C 232.390625 93.082031 232.265625 93.082031 232.265625 93.148438 C 231.378906 94.921875 230.046875 96.378906 228.84375 97.960938 C 228.589844 98.34375 228.210938 98.660156 227.832031 98.914062 C 226.308594 99.988281 224.726562 101.066406 223.140625 102.078125 C 222.128906 102.777344 221.050781 103.347656 219.972656 103.980469 C 219.402344 104.296875 218.769531 104.613281 217.945312 105.058594 C 219.152344 103.21875 220.542969 101.699219 221.367188 99.800781 C 221.242188 99.925781 221.179688 100.050781 221.050781 100.179688 C 219.910156 101.699219 218.832031 103.21875 217.757812 104.742188 C 217.25 105.5 216.617188 106.070312 215.855469 106.578125 C 214.527344 107.527344 213.070312 108.289062 211.929688 109.429688 C 211.929688 109.429688 211.863281 109.429688 211.738281 109.429688 C 212.308594 108.667969 212.816406 107.84375 213.320312 107.023438 Z M 201.347656 80.664062 C 201.980469 81.933594 202.804688 83.074219 203.820312 84.023438 C 205.65625 85.734375 207.492188 87.445312 209.332031 89.15625 C 210.34375 90.105469 211.230469 91.246094 211.738281 92.578125 C 212.117188 93.464844 212.371094 94.351562 212.6875 95.238281 C 213.070312 96.378906 213.257812 97.582031 213.257812 98.847656 C 213.195312 101.445312 212.941406 104.042969 212.179688 106.578125 C 211.800781 107.910156 211.167969 109.175781 210.535156 110.441406 C 210.660156 108.667969 210.789062 106.957031 210.851562 105.183594 C 210.851562 104.234375 210.722656 103.285156 210.660156 102.398438 C 210.660156 102.144531 210.597656 101.828125 210.597656 101.574219 C 210.722656 100.496094 210.976562 99.417969 211.105469 98.40625 C 211.230469 97.453125 211.359375 96.566406 211.484375 95.617188 C 211.484375 95.492188 211.421875 95.300781 211.421875 95.175781 C 211.359375 95.175781 211.292969 95.175781 211.230469 95.175781 C 210.789062 96.949219 210.660156 98.847656 210.089844 100.6875 C 209.835938 99.988281 209.519531 99.292969 209.394531 98.59375 C 208.886719 96.632812 208 94.855469 206.734375 93.273438 C 206.542969 93.019531 206.351562 92.640625 206.289062 92.261719 C 206.164062 91.5 206.097656 90.738281 206.097656 90.042969 C 206.097656 89.09375 206.097656 88.078125 205.847656 87.128906 C 205.464844 88.648438 205.78125 90.167969 205.59375 91.691406 C 205.210938 91.121094 204.894531 90.484375 204.640625 89.851562 C 204.136719 88.648438 203.691406 87.382812 202.804688 86.367188 C 202.234375 85.671875 201.980469 84.910156 201.726562 84.023438 C 201.601562 83.515625 201.472656 83.011719 201.222656 82.566406 C 200.839844 81.804688 200.777344 80.984375 200.714844 80.09375 C 201.09375 80.222656 201.222656 80.414062 201.347656 80.664062 Z M 208 96.632812 C 207.9375 96.632812 207.9375 96.695312 207.875 96.695312 C 207.808594 96.503906 207.746094 96.316406 207.683594 96.125 C 207.746094 96.25 207.875 96.441406 208 96.632812 Z M 207.683594 103.21875 C 207.238281 101.445312 206.351562 99.863281 205.339844 98.277344 C 204.390625 96.757812 203.5 95.175781 202.679688 93.589844 C 202.042969 92.386719 201.539062 91.121094 200.96875 89.914062 C 200.398438 88.773438 200.015625 87.636719 199.890625 86.367188 C 199.765625 85.101562 199.699219 83.769531 199.699219 82.503906 C 199.699219 81.617188 199.765625 80.664062 199.828125 79.777344 C 200.015625 79.90625 200.082031 80.03125 200.082031 80.160156 C 200.269531 81.300781 200.585938 82.375 201.15625 83.453125 C 201.285156 83.644531 201.285156 83.898438 201.347656 84.148438 C 201.601562 84.910156 201.855469 85.671875 202.425781 86.304688 C 202.867188 86.875 203.183594 87.445312 203.375 88.140625 C 203.820312 89.914062 204.515625 91.625 205.71875 93.082031 C 206.035156 93.464844 206.351562 93.84375 206.605469 94.222656 C 206.984375 94.792969 207.238281 95.363281 207.554688 95.996094 C 206.605469 94.984375 205.65625 93.90625 204.769531 92.894531 C 203.820312 91.816406 202.929688 90.738281 201.980469 89.726562 C 201.917969 89.980469 201.980469 90.234375 202.109375 90.421875 C 202.742188 91.371094 203.375 92.324219 204.199219 93.082031 C 204.640625 93.464844 205.085938 93.90625 205.527344 94.351562 C 207.175781 96.0625 208.191406 98.152344 209.140625 100.242188 C 209.648438 101.382812 210.027344 102.523438 210.027344 103.726562 C 210.027344 105.628906 209.902344 107.527344 209.773438 109.367188 C 209.648438 110.507812 209.140625 111.582031 208.632812 112.660156 C 208.632812 112.40625 208.632812 112.152344 208.695312 111.898438 C 208.949219 110 209.015625 108.160156 208.507812 106.261719 C 208.316406 105.246094 207.9375 104.234375 207.683594 103.21875 Z M 150.726562 82.1875 C 150.664062 82.1875 150.601562 82.1875 150.726562 82.1875 Z M 138.878906 105.945312 C 141.035156 109.175781 143.820312 111.773438 146.863281 114.117188 C 149.078125 115.828125 151.675781 116.777344 154.148438 118.109375 C 156.113281 119.1875 158.203125 120.007812 160.101562 121.148438 C 161.558594 121.972656 162.890625 122.988281 164.15625 124.0625 C 167.261719 126.726562 169.796875 129.894531 171.824219 133.441406 C 172.519531 134.644531 173.21875 135.847656 173.976562 137.117188 C 173.851562 137.117188 173.726562 137.117188 173.726562 137.117188 C 172.078125 135.40625 169.988281 134.328125 168.085938 132.933594 C 167.007812 132.171875 166.121094 131.285156 165.363281 130.210938 C 163.777344 127.992188 162.128906 125.773438 160.546875 123.558594 C 160.421875 123.367188 160.292969 123.175781 160.101562 122.988281 C 161.308594 125.773438 163.269531 127.929688 165.046875 130.589844 C 163.90625 129.957031 163.019531 129.574219 162.128906 129.070312 C 160.609375 128.183594 159.027344 127.296875 157.503906 126.28125 C 155.226562 124.761719 152.945312 123.242188 150.726562 121.65625 C 150.21875 121.277344 149.714844 120.769531 149.269531 120.261719 C 147.496094 118.046875 145.660156 115.890625 144.328125 113.292969 C 144.265625 113.230469 144.136719 113.167969 144.074219 113.105469 C 144.011719 113.863281 144.011719 113.925781 145.339844 115.953125 C 145.910156 116.839844 146.546875 117.664062 147.179688 118.550781 C 143.757812 116.839844 139.449219 110.253906 138.183594 104.742188 C 138.371094 105.246094 138.625 105.5625 138.878906 105.945312 Z M 174.863281 140.789062 C 171.445312 139.015625 168.023438 137.117188 164.285156 136.039062 C 163.523438 135.785156 162.699219 135.59375 161.878906 135.46875 C 159.722656 135.023438 157.570312 134.707031 155.414062 134.199219 C 150.664062 133.125 146.609375 130.84375 143.3125 127.230469 C 142.871094 126.726562 142.492188 126.089844 142.109375 125.519531 C 140.714844 122.988281 139.640625 120.328125 139.257812 117.410156 C 138.878906 114.6875 138.183594 112.027344 137.675781 109.367188 C 137.359375 107.71875 137.230469 106.070312 136.980469 104.425781 C 137.042969 104.425781 137.167969 104.359375 137.230469 104.359375 C 137.484375 105.121094 137.800781 105.882812 138.054688 106.640625 C 138.753906 108.730469 139.703125 110.695312 140.78125 112.597656 C 142.554688 115.636719 145.152344 117.855469 147.6875 120.199219 C 148.253906 120.707031 148.824219 121.277344 149.460938 121.71875 C 150.03125 122.164062 150.664062 122.542969 151.296875 122.921875 C 151.359375 122.988281 151.421875 122.988281 151.488281 122.988281 C 152.878906 124 154.339844 125.015625 155.730469 126.089844 C 152.5625 125.773438 149.648438 124.382812 146.226562 124.253906 C 146.734375 124.824219 147.304688 124.824219 147.8125 124.953125 C 151.421875 125.710938 154.972656 126.660156 158.457031 128.117188 C 161.75 129.511719 164.664062 131.414062 167.453125 133.503906 C 168.339844 134.136719 169.226562 134.769531 170.175781 135.40625 C 172.394531 136.988281 174.230469 138.890625 175.753906 141.234375 C 175.5 141.105469 175.183594 140.980469 174.863281 140.789062 Z M 174.675781 116.207031 C 174.613281 116.207031 174.484375 116.207031 174.421875 116.207031 C 174.359375 116.460938 174.296875 116.652344 174.296875 116.90625 C 174.484375 118.234375 174.675781 119.628906 174.863281 120.960938 C 175.117188 122.480469 175.371094 124.0625 175.625 125.585938 C 175.6875 125.964844 175.5625 126.34375 175.5625 126.726562 C 175.433594 128.054688 175.246094 129.449219 175.308594 130.78125 C 175.371094 133.3125 175.5625 135.847656 175.753906 138.382812 C 174.863281 136.546875 173.976562 134.769531 173.40625 132.808594 C 172.332031 129.132812 171.949219 125.394531 171.886719 121.59375 C 171.824219 119.820312 172.140625 118.109375 172.710938 116.398438 C 173.15625 115.132812 173.535156 113.800781 174.105469 112.535156 C 174.863281 110.632812 176.132812 108.984375 177.589844 107.59375 C 180.25 105.121094 182.910156 102.648438 185.570312 100.179688 C 187.09375 98.785156 188.296875 97.136719 189.183594 95.300781 C 189.375 94.921875 189.5625 94.605469 189.878906 94.289062 C 189.816406 95.492188 189.691406 96.695312 189.183594 97.835938 C 188.867188 98.53125 188.675781 99.230469 188.488281 99.925781 C 188.167969 101.128906 187.789062 102.332031 186.964844 103.285156 C 185.761719 104.804688 185.066406 106.578125 184.367188 108.351562 C 183.988281 109.300781 183.542969 110.1875 182.976562 111.011719 C 182.722656 108.796875 183.101562 106.578125 182.59375 104.359375 C 182.277344 105.753906 182.277344 107.148438 182.214844 108.542969 C 182.214844 109.621094 182.085938 110.695312 181.960938 111.773438 C 181.898438 112.28125 181.644531 112.851562 181.328125 113.230469 C 179.488281 115.511719 178.222656 118.109375 177.460938 120.960938 C 177.210938 121.972656 176.765625 122.988281 176.386719 124 C 175.5 121.53125 175.308594 118.804688 174.675781 116.207031 Z M 179.996094 117.664062 C 179.871094 117.917969 179.808594 118.234375 179.679688 118.488281 C 179.617188 118.425781 179.554688 118.425781 179.488281 118.363281 C 179.679688 118.171875 179.808594 117.917969 179.996094 117.664062 Z M 178.414062 140.601562 C 178.476562 140.917969 178.539062 141.296875 178.476562 141.675781 C 177.78125 140.15625 176.957031 138.636719 176.828125 136.925781 C 176.574219 134.199219 176.449219 131.476562 176.449219 128.753906 C 176.449219 126.980469 177.019531 125.269531 177.714844 123.683594 C 179.046875 120.578125 180.566406 117.601562 182.910156 115.132812 C 183.542969 114.496094 184.179688 113.863281 184.875 113.292969 C 186.140625 112.214844 187.03125 110.824219 187.917969 109.429688 C 188.105469 109.175781 188.167969 108.796875 188.105469 108.414062 C 186.777344 109.9375 185.445312 111.519531 184.113281 113.039062 C 182.785156 114.5625 181.390625 116.082031 180.058594 117.539062 C 180.503906 116.714844 180.945312 115.828125 181.453125 115.003906 C 181.835938 114.433594 182.277344 113.863281 182.722656 113.292969 C 184.433594 111.203125 185.445312 108.730469 186.078125 106.132812 C 186.332031 105.121094 186.777344 104.234375 187.410156 103.410156 C 188.167969 102.460938 188.613281 101.382812 188.929688 100.304688 C 189.058594 99.988281 189.058594 99.609375 189.246094 99.292969 C 190.007812 97.773438 190.515625 96.1875 190.832031 94.539062 C 190.894531 94.351562 190.957031 94.160156 191.210938 93.96875 C 191.273438 95.300781 191.402344 96.566406 191.402344 97.898438 C 191.402344 99.800781 191.273438 101.636719 191.148438 103.535156 C 191.019531 105.375 190.449219 107.023438 189.625 108.667969 C 188.804688 110.441406 188.042969 112.214844 187.15625 113.992188 C 185.953125 116.273438 184.683594 118.617188 183.292969 120.832031 C 181.835938 123.113281 180.566406 125.394531 179.933594 127.992188 C 179.554688 129.511719 179.046875 130.96875 178.601562 132.492188 C 177.90625 135.152344 178.03125 137.875 178.414062 140.601562 Z M 150.410156 165.6875 C 150.21875 164.863281 150.09375 163.976562 149.777344 163.15625 C 148.507812 159.605469 149.207031 156.25 150.664062 152.765625 C 150.726562 152.953125 150.789062 153.082031 150.789062 153.144531 C 150.601562 157.199219 151.042969 161.191406 151.804688 165.183594 C 151.929688 165.878906 151.929688 166.640625 151.992188 167.398438 C 151.296875 165.6875 151.042969 163.851562 150.15625 162.203125 C 150.285156 163.28125 150.535156 164.292969 150.789062 165.308594 C 151.042969 166.320312 151.359375 167.335938 151.359375 168.351562 C 150.851562 167.589844 150.601562 166.640625 150.410156 165.6875 Z M 143.25 175.570312 C 142.679688 174.683594 142.238281 173.796875 141.605469 173.101562 C 140.589844 172.023438 139.828125 170.820312 139.007812 169.554688 C 138.183594 168.285156 137.738281 166.890625 137.613281 165.371094 C 137.359375 162.710938 137.105469 160.113281 136.789062 157.515625 C 136.789062 157.390625 136.851562 157.261719 136.851562 157.074219 C 137.867188 158.210938 138.5 159.480469 139.007812 160.746094 C 139.511719 161.949219 140.019531 163.15625 140.589844 164.359375 C 140.90625 165.117188 141.285156 165.878906 141.539062 166.703125 C 141.984375 168.03125 142.171875 169.425781 142.425781 170.820312 C 142.363281 170.820312 142.300781 170.882812 142.238281 170.882812 C 141.667969 169.554688 141.097656 168.222656 140.527344 166.957031 C 140.464844 166.957031 140.398438 167.019531 140.335938 167.019531 C 140.464844 167.460938 140.527344 167.84375 140.714844 168.285156 C 141.351562 169.742188 141.984375 171.199219 142.679688 172.65625 C 142.996094 173.542969 143.3125 174.496094 143.25 175.570312 Z M 119.113281 164.675781 C 118.921875 165.941406 118.730469 167.210938 118.542969 168.730469 C 117.972656 167.273438 117.464844 166.003906 117.023438 164.738281 C 116.832031 164.167969 116.703125 163.535156 116.578125 162.902344 C 116.261719 161.570312 115.816406 160.367188 114.929688 159.351562 C 114.804688 159.226562 114.613281 159.101562 114.296875 158.910156 C 114.359375 159.164062 114.359375 159.289062 114.359375 159.351562 C 115.375 162.648438 116.453125 165.878906 117.464844 169.171875 C 117.527344 169.425781 117.59375 169.617188 117.65625 169.871094 C 117.59375 169.933594 117.527344 169.933594 117.527344 169.996094 C 117.402344 169.742188 117.210938 169.488281 117.085938 169.171875 C 116.007812 167.273438 114.996094 165.433594 113.917969 163.535156 C 113.03125 162.015625 111.828125 160.808594 110.371094 159.796875 C 108.976562 158.847656 107.644531 157.769531 106.378906 156.628906 C 104.476562 154.855469 102.703125 153.019531 100.929688 151.179688 C 100.484375 150.738281 100.167969 150.167969 99.789062 149.660156 C 99.664062 149.46875 99.664062 149.28125 99.472656 148.835938 C 100.550781 149.152344 101.5 149.34375 102.324219 149.660156 C 103.90625 150.292969 105.492188 150.925781 107.011719 151.6875 C 109.671875 153.019531 112.332031 154.285156 114.804688 155.867188 C 118.097656 157.832031 119.621094 160.808594 119.113281 164.675781 Z M 90.03125 164.675781 C 89.714844 164.738281 89.335938 164.738281 89.019531 164.800781 C 87.308594 164.863281 85.535156 164.863281 83.824219 164.992188 C 82.875 165.054688 81.984375 165.308594 81.097656 165.5625 C 80.65625 165.6875 80.339844 166.003906 79.957031 166.257812 C 80.65625 166.132812 81.289062 165.753906 81.921875 165.625 C 84.078125 165.117188 86.292969 165.433594 88.574219 165.246094 C 87.246094 166.132812 86.167969 167.019531 84.902344 167.714844 C 84.078125 168.160156 83.191406 168.667969 82.304688 168.792969 C 80.148438 169.109375 77.929688 169.363281 75.777344 169.238281 C 73.242188 169.109375 70.707031 168.539062 68.429688 168.222656 C 69.632812 167.527344 70.960938 166.703125 72.355469 166.003906 C 75.777344 164.292969 79.324219 163.28125 83.125 162.964844 C 84.835938 162.835938 86.546875 162.773438 88.257812 162.710938 C 90.347656 162.585938 92.1875 163.21875 94.085938 163.914062 C 92.628906 164.167969 91.300781 164.421875 90.03125 164.675781 Z M 115.058594 177.28125 C 114.042969 177.15625 112.96875 177.15625 111.953125 177.28125 C 111.320312 177.347656 110.621094 177.21875 109.988281 177.09375 C 109.101562 176.964844 108.214844 176.585938 107.328125 176.523438 C 104.351562 176.269531 101.371094 176.648438 98.457031 177.472656 C 98.332031 177.535156 98.269531 177.597656 98.140625 177.664062 C 98.523438 177.597656 98.902344 177.597656 99.21875 177.535156 C 101.691406 176.964844 104.222656 176.777344 106.757812 176.902344 C 107.707031 176.964844 108.59375 177.15625 109.417969 177.597656 C 108.976562 177.789062 108.59375 177.851562 108.152344 177.917969 C 105.933594 178.359375 103.71875 178.804688 101.691406 179.816406 C 100.550781 180.386719 99.34375 180.832031 98.078125 181.210938 C 97.445312 181.464844 96.746094 181.527344 96.050781 181.589844 C 93.644531 181.78125 91.300781 182.160156 88.890625 181.972656 C 88.195312 181.90625 87.5 182.097656 86.800781 182.160156 C 86.167969 182.222656 85.535156 182.289062 84.902344 182.289062 C 84.648438 182.289062 84.394531 182.160156 84.078125 182.035156 C 85.152344 181.148438 86.230469 180.324219 87.179688 179.5 C 88.257812 178.550781 89.398438 177.726562 90.730469 177.15625 C 93.582031 175.953125 96.429688 174.75 99.28125 173.609375 C 100.929688 172.972656 102.578125 172.910156 104.289062 173.292969 C 105.933594 173.671875 107.519531 174.304688 109.101562 174.9375 C 110.558594 175.507812 112.015625 176.015625 113.539062 176.523438 C 114.171875 176.710938 114.867188 176.902344 115.5 177.03125 C 115.4375 177.28125 115.246094 177.28125 115.058594 177.28125 Z M 143.125 196.480469 C 141.222656 196.605469 139.449219 197.050781 137.675781 197.683594 C 137.105469 197.875 136.472656 197.9375 135.839844 198 C 133.9375 198.0625 132.101562 197.683594 130.328125 197.113281 C 128.109375 196.480469 125.890625 195.847656 123.675781 195.210938 C 122.46875 194.894531 121.265625 194.707031 120 194.386719 C 120 194.324219 120 194.324219 120 194.261719 C 120.378906 194.199219 120.757812 194.136719 121.203125 194.070312 C 123.167969 193.882812 125.132812 193.691406 127.09375 193.5 C 129.503906 193.3125 131.847656 192.996094 134.253906 193.4375 C 135.839844 193.691406 137.421875 193.945312 138.941406 194.324219 C 139.828125 194.515625 140.714844 194.707031 141.605469 195.277344 C 141.285156 195.402344 141.097656 195.464844 140.90625 195.527344 C 139.765625 195.71875 138.5625 195.847656 137.421875 196.035156 C 136.472656 196.164062 135.519531 196.289062 134.570312 196.480469 C 134.253906 196.542969 133.9375 196.734375 133.558594 196.859375 C 133.558594 196.921875 133.621094 196.984375 133.621094 197.050781 C 136.089844 196.796875 138.5 196.859375 140.90625 196.289062 C 141.792969 196.097656 142.679688 195.972656 143.757812 196.289062 C 143.441406 196.417969 143.25 196.480469 143.125 196.480469 Z M 139.257812 296.265625 C 136.851562 294.363281 135.964844 291.257812 136.980469 287.964844 C 137.929688 284.796875 140.78125 281.503906 145.089844 281.121094 C 145.339844 281.121094 145.59375 281.121094 145.847656 281.121094 C 150.03125 281.121094 157.503906 283.910156 165.488281 300.253906 C 166.183594 301.648438 166.753906 302.980469 167.261719 304.246094 C 156.871094 307.097656 144.835938 300.636719 139.257812 296.265625 Z M 186.015625 175.636719 C 181.453125 154.664062 182.277344 140.664062 188.675781 131.539062 C 194.316406 123.492188 203.691406 120.199219 213.574219 116.777344 C 215.347656 116.144531 217.1875 115.511719 218.960938 114.878906 C 239.550781 107.273438 240.628906 103.664062 242.59375 97.136719 C 242.71875 96.695312 242.84375 96.1875 243.035156 95.746094 C 245.378906 88.332031 249.054688 83.390625 261.597656 78.765625 C 271.480469 75.089844 277.246094 72.621094 280.035156 69.136719 C 279.019531 75.34375 274.460938 87.316406 255.328125 94.035156 C 241.261719 98.976562 240.3125 106.132812 239.425781 112.976562 C 238.539062 119.566406 237.648438 126.410156 224.851562 132.109375 C 207.621094 139.714844 198.941406 146.746094 199.066406 152.890625 C 199.128906 156.4375 202.234375 159.417969 208.125 161.761719 C 210.976562 162.902344 212.308594 164.359375 212.246094 166.386719 C 211.992188 172.46875 199.128906 181.527344 187.980469 186.597656 C 187.535156 183.175781 186.839844 179.5625 186.015625 175.636719 Z M 169.480469 228.539062 C 163.714844 222.203125 161.308594 215.675781 162.449219 209.46875 C 164.222656 200.027344 173.597656 193.121094 181.644531 190.714844 C 183.292969 190.207031 185.003906 189.574219 186.839844 188.875 C 190.894531 216.941406 182.53125 221.695312 169.480469 228.539062 Z M 289.980469 139.585938 C 287.699219 138.761719 285.925781 137.433594 284.914062 136.609375 C 285.925781 136.292969 286.878906 135.847656 287.765625 135.40625 C 288.144531 135.847656 288.839844 136.417969 289.792969 136.988281 C 289.855469 137.875 289.917969 138.761719 289.980469 139.585938 Z M 289.222656 134.582031 C 289.476562 134.390625 289.726562 134.265625 289.917969 134.074219 C 289.917969 134.453125 289.855469 134.769531 289.855469 135.152344 C 289.601562 134.960938 289.410156 134.769531 289.222656 134.582031 Z M 252.347656 183.113281 C 254.882812 183.113281 256.910156 183.554688 257.859375 184.757812 C 258.429688 185.457031 258.558594 185.835938 258.621094 185.960938 C 258.113281 186.214844 256.023438 186.089844 254.441406 185.960938 C 253.234375 185.898438 251.90625 185.773438 250.636719 185.773438 C 251.398438 185.074219 251.96875 184.1875 252.347656 183.113281 Z M 239.425781 185.074219 C 243.097656 184.316406 247.152344 183.429688 250.636719 183.175781 C 250.132812 184.1875 249.433594 184.886719 248.484375 185.328125 C 245.253906 186.914062 242.210938 186.34375 239.425781 185.074219 Z M 287.320312 192.929688 C 279.273438 207.882812 276.359375 217.132812 274.207031 223.847656 C 270.976562 234.113281 269.390625 239.246094 253.996094 251.726562 C 250.257812 254.765625 246.519531 256.984375 242.84375 258.566406 C 243.921875 257.617188 244.871094 256.476562 245.441406 255.082031 C 246.964844 251.34375 245.632812 246.785156 241.515625 241.523438 C 235.8125 234.300781 235.496094 231.070312 236.191406 229.613281 C 237.015625 227.96875 239.867188 227.714844 242.210938 227.714844 C 242.78125 227.714844 243.289062 227.714844 243.730469 227.714844 C 244.300781 227.714844 244.746094 227.714844 245.191406 227.714844 C 246.964844 227.648438 248.675781 226.761719 249.308594 225.558594 C 249.625 224.925781 249.625 224.230469 249.246094 223.660156 C 248.292969 222.265625 245.378906 221.757812 240.628906 222.203125 C 229.667969 223.214844 225.675781 218.527344 225.613281 218.464844 L 225.550781 218.398438 C 223.585938 216.5625 222.761719 215.042969 223.140625 214.21875 C 224.21875 211.8125 233.847656 212.382812 239.613281 212.699219 C 245.757812 213.015625 247.722656 213.078125 248.167969 212 C 248.292969 211.746094 248.421875 211.242188 247.851562 210.671875 C 246.328125 209.023438 246.265625 208.390625 246.265625 208.328125 C 247.40625 208.515625 252.347656 209.402344 255.898438 207.757812 C 259.316406 206.171875 267.238281 207.441406 267.363281 207.441406 L 270.59375 207.945312 L 267.933594 205.984375 C 254.820312 196.351562 247.089844 198.886719 244.429688 200.472656 C 244.429688 200.28125 244.367188 200.152344 244.367188 199.964844 C 243.921875 197.429688 243.414062 194.515625 243.542969 191.410156 C 243.605469 190.207031 243.984375 189.320312 244.746094 188.6875 C 246.773438 186.914062 251.019531 187.230469 254.375 187.484375 C 257.417969 187.738281 259.445312 187.863281 260.140625 186.660156 C 260.648438 185.707031 259.886719 184.570312 259.191406 183.746094 C 257.925781 182.160156 255.644531 181.589844 252.917969 181.527344 C 254.375 175.253906 251.96875 164.800781 249.496094 153.90625 C 247.535156 145.160156 245.441406 136.101562 245.441406 129.324219 C 245.441406 121.910156 251.019531 115.828125 255.769531 112.089844 C 266.285156 103.726562 280.226562 99.734375 284.851562 100.75 C 288.460938 101.574219 291.121094 102.648438 292.644531 105.183594 C 294.921875 108.984375 294.417969 116.269531 291.121094 127.929688 C 290.742188 129.257812 290.488281 130.527344 290.296875 131.730469 C 282.253906 139.777344 256.085938 136.546875 255.832031 136.480469 L 255.644531 138.066406 C 255.960938 138.128906 258.175781 138.382812 261.410156 138.574219 C 261.980469 139.460938 264.511719 143.132812 268.25 145.667969 L 269.136719 144.339844 C 266.539062 142.5625 264.449219 140.09375 263.4375 138.636719 C 264.765625 138.699219 266.285156 138.761719 267.808594 138.761719 C 267.933594 138.761719 268.125 138.761719 268.25 138.761719 C 269.074219 139.964844 271.796875 143.578125 276.296875 145.097656 L 276.804688 143.578125 C 273.636719 142.4375 271.355469 140.09375 270.214844 138.699219 C 271.925781 138.636719 273.636719 138.574219 275.347656 138.382812 C 276.105469 139.523438 278.578125 142.246094 284.535156 143.832031 L 284.914062 142.308594 C 280.542969 141.171875 278.261719 139.332031 277.183594 138.191406 C 279.273438 137.9375 281.300781 137.558594 283.203125 136.988281 C 284.089844 137.875 286.5625 140.09375 290.234375 141.171875 C 290.742188 144.273438 291.691406 147.1875 292.644531 150.167969 C 295.9375 160.367188 299.359375 170.757812 287.320312 192.929688 Z M 287.320312 192.929688 " fill-opacity="1" fill-rule="nonzero"/></g><path fill="#eae9e9" d="M 98.140625 177.664062 C 98.078125 177.664062 98.078125 177.664062 98.140625 177.664062 C 98.078125 177.726562 98.140625 177.664062 98.140625 177.664062 Z M 98.140625 177.664062 " fill-opacity="1" fill-rule="nonzero"/><path fill="#eae9e9" d="M 97.445312 178.042969 C 97.636719 177.917969 97.886719 177.789062 98.078125 177.664062 C 97.824219 177.726562 97.570312 177.726562 97.316406 177.789062 C 97.382812 177.917969 97.382812 177.980469 97.445312 178.042969 Z M 97.445312 178.042969 " fill-opacity="1" fill-rule="nonzero"/></svg>